<svg width="24" height="24" viewBox="0 0 24 24" fill="none" xmlns="http://www.w3.org/2000/svg">
<path d="M21.5244 17.5112C21.4044 16.9392 21.0284 16.4272 20.4884 16.1072C19.4884 15.5192 18.4524 14.9512 17.4524 14.4032L16.7684 14.0272C15.8964 13.5512 15.3004 13.6392 14.9524 13.7992C14.6204 13.9512 14.1844 14.3152 13.9964 15.1912C13.9924 15.2032 13.9884 15.2192 13.9884 15.2352C13.9284 15.4632 13.7604 15.5552 13.6644 15.5912C13.4444 15.6672 13.1844 15.6152 12.9684 15.4472C11.3004 14.1352 9.85642 12.6952 8.55241 11.0512C8.38442 10.8432 8.33242 10.5872 8.4124 10.3672C8.44841 10.2672 8.54841 10.0872 8.82842 10.0272C8.8404 10.0232 8.85642 10.0232 8.86841 10.0192C9.75642 9.82323 10.1084 9.36722 10.2524 9.01922C10.4084 8.62723 10.4604 7.95524 9.8164 6.98722C9.33242 6.26322 8.92842 5.47123 8.5364 4.70323C8.35642 4.35524 8.18042 4.00724 7.99641 3.66322C7.62842 2.98321 7.1364 2.55921 6.57641 2.43522C6.06841 2.32723 5.53242 2.47123 5.02441 2.85524C4.52041 3.23922 3.9884 3.66322 3.48442 4.15123C2.40041 5.20724 2.15242 6.54322 2.76841 8.01122C5.38042 14.2632 9.88042 18.7312 16.1484 21.2952C16.6364 21.4992 17.1164 21.5992 17.5724 21.5992C18.3964 21.5992 19.1524 21.2712 19.8084 20.6232C20.3404 20.0992 20.8084 19.4952 21.2084 18.9632C21.5164 18.5432 21.6284 18.0272 21.5244 17.5112Z" fill="white"/>
</svg>
